%TF.GenerationSoftware,KiCad,Pcbnew,8.0.3*%
%TF.CreationDate,2024-06-11T08:41:57-04:00*%
%TF.ProjectId,maynuo_18650_adapter,6d61796e-756f-45f3-9138-3635305f6164,rev?*%
%TF.SameCoordinates,PX529cae8PY4aa0010*%
%TF.FileFunction,Copper,L2,Bot*%
%TF.FilePolarity,Positive*%
%FSLAX46Y46*%
G04 Gerber Fmt 4.6, Leading zero omitted, Abs format (unit mm)*
G04 Created by KiCad (PCBNEW 8.0.3) date 2024-06-11 08:41:57*
%MOMM*%
%LPD*%
G01*
G04 APERTURE LIST*
%TA.AperFunction,ComponentPad*%
%ADD10C,3.300000*%
%TD*%
%TA.AperFunction,ComponentPad*%
%ADD11C,11.000000*%
%TD*%
G04 APERTURE END LIST*
D10*
%TO.P,BT1,1,+*%
%TO.N,Net-(BT1-+)*%
X12425000Y-38150000D03*
%TO.P,BT1,2,-*%
%TO.N,Net-(BT1--)*%
X85325000Y-38150000D03*
%TD*%
D11*
%TO.P,H1,1,1*%
%TO.N,Net-(BT1-+)*%
X33875000Y-13000000D03*
%TD*%
%TO.P,H2,1,1*%
%TO.N,Net-(BT1--)*%
X63875000Y-13000000D03*
%TD*%
%TA.AperFunction,Conductor*%
%TO.N,Net-(BT1-+)*%
G36*
X47123047Y-1019685D02*
G01*
X47168802Y-1072489D01*
X47179531Y-1134870D01*
X42964155Y-49036870D01*
X42938669Y-49101926D01*
X42882057Y-49142876D01*
X42840632Y-49150000D01*
X8050610Y-49150000D01*
X8049461Y-49149995D01*
X7788803Y-49147580D01*
X7780562Y-49147229D01*
X7260254Y-49107716D01*
X7250919Y-49106650D01*
X6735664Y-49027939D01*
X6726435Y-49026169D01*
X6218610Y-48908664D01*
X6209553Y-48906203D01*
X5870445Y-48800120D01*
X5712094Y-48750584D01*
X5703239Y-48747441D01*
X5218988Y-48554598D01*
X5210397Y-48550794D01*
X4742130Y-48321833D01*
X4733851Y-48317388D01*
X4284290Y-48053638D01*
X4276371Y-48048580D01*
X3848050Y-47751530D01*
X3840537Y-47745886D01*
X3435947Y-47417261D01*
X3428884Y-47411065D01*
X3050341Y-47052747D01*
X3043776Y-47046044D01*
X2693447Y-46660083D01*
X2687400Y-46652892D01*
X2367309Y-46241521D01*
X2361824Y-46233891D01*
X2073803Y-45799463D01*
X2068911Y-45791441D01*
X1814611Y-45336447D01*
X1810341Y-45328077D01*
X1591227Y-44855137D01*
X1587603Y-44846468D01*
X1404927Y-44358287D01*
X1401974Y-44349381D01*
X1256787Y-43848759D01*
X1254514Y-43839642D01*
X1147659Y-43329493D01*
X1146082Y-43320230D01*
X1078157Y-42803408D01*
X1077290Y-42794087D01*
X1048697Y-42273628D01*
X1048538Y-42264237D01*
X1059437Y-41743099D01*
X1059988Y-41733752D01*
X1110321Y-41214908D01*
X1111575Y-41205649D01*
X1201052Y-40692107D01*
X1203014Y-40682927D01*
X1331115Y-40177657D01*
X1333755Y-40168689D01*
X1499751Y-39674568D01*
X1503075Y-39665790D01*
X1670481Y-39269716D01*
X1706232Y-39185129D01*
X1709676Y-39177681D01*
X1823508Y-38951589D01*
X1831708Y-38937654D01*
X2367340Y-38150000D01*
X10269976Y-38150000D01*
X10290047Y-38443436D01*
X10349890Y-38731421D01*
X10349891Y-38731424D01*
X10448386Y-39008560D01*
X10448385Y-39008560D01*
X10583706Y-39269716D01*
X10735991Y-39485453D01*
X11709152Y-38512292D01*
X11716049Y-38528942D01*
X11803599Y-38659970D01*
X11915030Y-38771401D01*
X12046058Y-38858951D01*
X12062705Y-38865846D01*
X11091658Y-39836894D01*
X11182240Y-39910590D01*
X11182246Y-39910594D01*
X11433550Y-40063415D01*
X11703322Y-40180593D01*
X11986541Y-40259948D01*
X11986547Y-40259949D01*
X12277935Y-40300000D01*
X12572065Y-40300000D01*
X12863452Y-40259949D01*
X12863458Y-40259948D01*
X13146677Y-40180593D01*
X13416449Y-40063415D01*
X13667753Y-39910594D01*
X13667767Y-39910584D01*
X13758340Y-39836895D01*
X13758341Y-39836894D01*
X12787294Y-38865846D01*
X12803942Y-38858951D01*
X12934970Y-38771401D01*
X13046401Y-38659970D01*
X13133951Y-38528942D01*
X13140846Y-38512293D01*
X14114007Y-39485453D01*
X14114008Y-39485453D01*
X14266293Y-39269716D01*
X14401613Y-39008560D01*
X14500108Y-38731424D01*
X14500109Y-38731421D01*
X14559952Y-38443436D01*
X14580023Y-38150000D01*
X14559952Y-37856563D01*
X14500109Y-37568578D01*
X14500108Y-37568575D01*
X14401613Y-37291439D01*
X14401614Y-37291439D01*
X14266293Y-37030283D01*
X14114007Y-36814545D01*
X13140846Y-37787705D01*
X13133951Y-37771058D01*
X13046401Y-37640030D01*
X12934970Y-37528599D01*
X12803942Y-37441049D01*
X12787293Y-37434152D01*
X13758341Y-36463104D01*
X13667756Y-36389407D01*
X13416449Y-36236584D01*
X13146677Y-36119406D01*
X12863458Y-36040051D01*
X12863452Y-36040050D01*
X12572065Y-36000000D01*
X12277935Y-36000000D01*
X11986547Y-36040050D01*
X11986541Y-36040051D01*
X11703322Y-36119406D01*
X11433550Y-36236584D01*
X11182243Y-36389407D01*
X11091657Y-36463104D01*
X12062706Y-37434152D01*
X12046058Y-37441049D01*
X11915030Y-37528599D01*
X11803599Y-37640030D01*
X11716049Y-37771058D01*
X11709152Y-37787706D01*
X10735991Y-36814545D01*
X10735990Y-36814545D01*
X10583710Y-37030276D01*
X10583706Y-37030282D01*
X10448386Y-37291439D01*
X10349891Y-37568575D01*
X10349890Y-37568578D01*
X10290047Y-37856563D01*
X10269976Y-38150000D01*
X2367340Y-38150000D01*
X23207260Y-7504610D01*
X23366418Y-7201039D01*
X23369442Y-7195610D01*
X23717708Y-6605720D01*
X23721485Y-6599724D01*
X24102923Y-6031220D01*
X24107041Y-6025449D01*
X24520589Y-5479868D01*
X24525034Y-5474343D01*
X24969322Y-4953492D01*
X24974069Y-4948240D01*
X25447645Y-4453825D01*
X25452676Y-4448868D01*
X25953946Y-3982555D01*
X25959253Y-3977896D01*
X26486523Y-3541258D01*
X26492131Y-3536879D01*
X27043679Y-3131340D01*
X27049536Y-3127289D01*
X27623518Y-2754202D01*
X27629568Y-2750513D01*
X28224082Y-2411114D01*
X28230383Y-2407754D01*
X28843454Y-2103168D01*
X28849927Y-2100182D01*
X29479548Y-1831409D01*
X29486147Y-1828815D01*
X30130201Y-1596761D01*
X30136976Y-1594539D01*
X30793304Y-1399977D01*
X30800187Y-1398150D01*
X31466659Y-1241714D01*
X31473617Y-1240291D01*
X32147986Y-1122508D01*
X32155046Y-1121484D01*
X32835059Y-1042747D01*
X32842168Y-1042131D01*
X33526044Y-1002670D01*
X33532252Y-1002468D01*
X33874583Y-1000002D01*
X33875476Y-1000000D01*
X47056008Y-1000000D01*
X47123047Y-1019685D01*
G37*
%TD.AperFunction*%
%TD*%
%TA.AperFunction,Conductor*%
%TO.N,Net-(BT1--)*%
G36*
X63875271Y-1000003D02*
G01*
X63904599Y-1000214D01*
X64217746Y-1002469D01*
X64223956Y-1002671D01*
X64907828Y-1042131D01*
X64914943Y-1042747D01*
X65594963Y-1121486D01*
X65602004Y-1122507D01*
X66276388Y-1240292D01*
X66283334Y-1241713D01*
X66949800Y-1398148D01*
X66956707Y-1399981D01*
X67613010Y-1594535D01*
X67619800Y-1596762D01*
X68263831Y-1828809D01*
X68270481Y-1831424D01*
X68900063Y-2100179D01*
X68906552Y-2103173D01*
X69519615Y-2407754D01*
X69525920Y-2411117D01*
X69824559Y-2581605D01*
X70120414Y-2750504D01*
X70126495Y-2754212D01*
X70481726Y-2985111D01*
X70700453Y-3127283D01*
X70706330Y-3131348D01*
X71257855Y-3536871D01*
X71263488Y-3541269D01*
X71790728Y-3977882D01*
X71796070Y-3982572D01*
X72297305Y-4448852D01*
X72302371Y-4453844D01*
X72775907Y-4948216D01*
X72780699Y-4953517D01*
X73224948Y-5474322D01*
X73229427Y-5479890D01*
X73642941Y-6025426D01*
X73647092Y-6031243D01*
X74028497Y-6599699D01*
X74032306Y-6605746D01*
X74380556Y-7195610D01*
X74383598Y-7201073D01*
X74542739Y-7504609D01*
X95968234Y-38937586D01*
X95976527Y-38951664D01*
X96090312Y-39177662D01*
X96093775Y-39185149D01*
X96296925Y-39665790D01*
X96300252Y-39674577D01*
X96466237Y-40168666D01*
X96468890Y-40177680D01*
X96596985Y-40682927D01*
X96598948Y-40692116D01*
X96688420Y-41205622D01*
X96689681Y-41214934D01*
X96740010Y-41733736D01*
X96740562Y-41743116D01*
X96751462Y-42264237D01*
X96751302Y-42273632D01*
X96722710Y-42794070D01*
X96721840Y-42803426D01*
X96653918Y-43320230D01*
X96652341Y-43329493D01*
X96545484Y-43839645D01*
X96543211Y-43848762D01*
X96398026Y-44349381D01*
X96395068Y-44358301D01*
X96212399Y-44846464D01*
X96208775Y-44855133D01*
X95989659Y-45328077D01*
X95985389Y-45336447D01*
X95731088Y-45791441D01*
X95726196Y-45799463D01*
X95438175Y-46233891D01*
X95432690Y-46241521D01*
X95112600Y-46652892D01*
X95106553Y-46660084D01*
X94756223Y-47046045D01*
X94749648Y-47052758D01*
X94371115Y-47411065D01*
X94364052Y-47417261D01*
X93959463Y-47745886D01*
X93951950Y-47751530D01*
X93523629Y-48048580D01*
X93515710Y-48053638D01*
X93066149Y-48317388D01*
X93057870Y-48321833D01*
X92589603Y-48550794D01*
X92581012Y-48554598D01*
X92096761Y-48747441D01*
X92087906Y-48750584D01*
X91704565Y-48870504D01*
X91590454Y-48906201D01*
X91581390Y-48908664D01*
X91073565Y-49026169D01*
X91064336Y-49027939D01*
X90549081Y-49106650D01*
X90539746Y-49107716D01*
X90019438Y-49147230D01*
X90011196Y-49147581D01*
X89750540Y-49149995D01*
X89749392Y-49150000D01*
X54909368Y-49150000D01*
X54842329Y-49130315D01*
X54796574Y-49077511D01*
X54785845Y-49036870D01*
X53827800Y-38150000D01*
X83169976Y-38150000D01*
X83190047Y-38443436D01*
X83249890Y-38731421D01*
X83249891Y-38731424D01*
X83348386Y-39008560D01*
X83348385Y-39008560D01*
X83483706Y-39269716D01*
X83635991Y-39485453D01*
X84609152Y-38512291D01*
X84616049Y-38528942D01*
X84703599Y-38659970D01*
X84815030Y-38771401D01*
X84946058Y-38858951D01*
X84962705Y-38865846D01*
X83991658Y-39836894D01*
X84082240Y-39910590D01*
X84082246Y-39910594D01*
X84333550Y-40063415D01*
X84603322Y-40180593D01*
X84886541Y-40259948D01*
X84886547Y-40259949D01*
X85177935Y-40300000D01*
X85472065Y-40300000D01*
X85763452Y-40259949D01*
X85763458Y-40259948D01*
X86046677Y-40180593D01*
X86316449Y-40063415D01*
X86567753Y-39910594D01*
X86567767Y-39910584D01*
X86658340Y-39836895D01*
X86658341Y-39836894D01*
X85687294Y-38865846D01*
X85703942Y-38858951D01*
X85834970Y-38771401D01*
X85946401Y-38659970D01*
X86033951Y-38528942D01*
X86040847Y-38512293D01*
X87014007Y-39485453D01*
X87014008Y-39485453D01*
X87166293Y-39269716D01*
X87301613Y-39008560D01*
X87400108Y-38731424D01*
X87400109Y-38731421D01*
X87459952Y-38443436D01*
X87480023Y-38150000D01*
X87459952Y-37856563D01*
X87400109Y-37568578D01*
X87400108Y-37568575D01*
X87301613Y-37291439D01*
X87301614Y-37291439D01*
X87166293Y-37030283D01*
X87014007Y-36814545D01*
X86040846Y-37787705D01*
X86033951Y-37771058D01*
X85946401Y-37640030D01*
X85834970Y-37528599D01*
X85703942Y-37441049D01*
X85687293Y-37434152D01*
X86658341Y-36463104D01*
X86567756Y-36389407D01*
X86316449Y-36236584D01*
X86046677Y-36119406D01*
X85763458Y-36040051D01*
X85763452Y-36040050D01*
X85472065Y-36000000D01*
X85177935Y-36000000D01*
X84886547Y-36040050D01*
X84886541Y-36040051D01*
X84603322Y-36119406D01*
X84333550Y-36236584D01*
X84082243Y-36389407D01*
X83991657Y-36463104D01*
X84962706Y-37434152D01*
X84946058Y-37441049D01*
X84815030Y-37528599D01*
X84703599Y-37640030D01*
X84616049Y-37771058D01*
X84609152Y-37787706D01*
X83635991Y-36814545D01*
X83635990Y-36814545D01*
X83483710Y-37030276D01*
X83483706Y-37030282D01*
X83348386Y-37291439D01*
X83249891Y-37568575D01*
X83249890Y-37568578D01*
X83190047Y-37856563D01*
X83169976Y-38150000D01*
X53827800Y-38150000D01*
X50570469Y-1134870D01*
X50584201Y-1066363D01*
X50632791Y-1016155D01*
X50693992Y-1000000D01*
X63874378Y-1000000D01*
X63875271Y-1000003D01*
G37*
%TD.AperFunction*%
%TD*%
M02*
