<?xml version="1.0" standalone="no"?>
<!DOCTYPE svg PUBLIC "-//W3C//DTD SVG 1.1//EN"
"http://www.w3.org/Graphics/SVG/1.1/DTD/svg11.dtd">
<svg width="366.512" height="189.732" viewBox="0 0 7635.66 3952.76" version="1.1"
xmlns="http://www.w3.org/2000/svg"
xmlns:xlink="http://www.w3.org/1999/xlink">
<g fill-rule="evenodd"><path d="M 19.4125,3330.6 L 20.3005,3288.09 L 24.3625,3246.51 L 31.5625,3205.35 L 41.8585,3164.86 L 55.1905,3125.26 L 71.1865,3087.41 L 80.4205,3069.02 L 1764.18,592.883 L 1776.95,568.551 L 1804.37,522.103 L 1834.7,476.867 L 1867.59,433.453 L 1903.3,391.593 L 1940.59,352.663 L 1980.45,315.555 L 2022.39,280.807 L 2066.72,248.211 L 2112.39,218.543 L 2159.21,191.819 L 2207.98,167.571 L 2258.58,145.969 L 2309.29,127.697 L 2361.51,112.203 L 2415.07,99.6285 L 2468.73,90.2725 L 2522.27,84.0745 L 2577.17,80.9025 L 3642.03,80.7085 L 3647.31,82.2585 L 3650.92,86.4145 L 3651.76,91.3265 L 3319.84,3863.14 L 3317.83,3868.26 L 3313.38,3871.48 L 3310.12,3872.05 L 570.653,3872.05 L 549.481,3871.83 L 507.777,3868.63 L 466.479,3862.3 L 425.779,3852.85 L 386.609,3840.6 L 347.781,3825.16 L 309.583,3806.49 L 273.561,3785.32 L 239.243,3761.49 L 207.385,3735.61 L 177.023,3706.91 L 148.921,3675.99 L 123.241,3643.03 L 100.129,3608.22 L 79.7205,3571.77 L 62.1305,3533.87 L 47.2285,3494.04 L 35.7965,3454.63 L 27.0805,3413.01 L 21.6625,3371.58 L 19.4125,3330.6M 745.497,3005.9 L 747.077,3029.01 L 751.789,3051.69 L 759.545,3073.51 L 770.201,3094.07 L 782.191,3111.06 L 810.503,3082.75 L 796.496,3058.75 L 788.103,3032.92 L 785.264,3005.91 L 788.103,2978.89 L 796.496,2953.06 L 810.505,2929.06 L 782.191,2900.75 L 770.201,2917.74 L 759.545,2938.3 L 751.789,2960.12 L 747.077,2982.8 L 745.497,3005.9M 810.197,3138.73 L 817.329,3144.53 L 837.117,3156.57 L 858.359,3165.79 L 880.661,3172.04 L 903.605,3175.2 L 926.765,3175.2 L 949.709,3172.04 L 972.009,3165.79 L 993.251,3156.57 L 1013.04,3144.53 L 1020.17,3138.73 L 991.564,3110.12 L 980.146,3118.42 L 955.333,3129.47 L 928.765,3135.12 L 901.604,3135.12 L 875.037,3129.47 L 850.224,3118.42 L 838.804,3110.12 L 810.197,3138.73M 810.197,2873.08 L 838.805,2901.69 L 850.224,2893.39 L 875.037,2882.34 L 901.604,2876.7 L 928.765,2876.7 L 955.333,2882.34 L 980.146,2893.39 L 991.563,2901.69 L 1020.17,2873.08 L 1013.04,2867.27 L 993.251,2855.24 L 972.009,2846.01 L 949.709,2839.77 L 926.765,2836.61 L 903.605,2836.61 L 880.661,2839.77 L 858.359,2846.01 L 837.117,2855.24 L 817.329,2867.27 L 810.197,2873.08M 1019.86,2929.06 L 1033.87,2953.06 L 1042.27,2978.89 L 1045.11,3005.91 L 1042.27,3032.92 L 1033.87,3058.75 L 1019.87,3082.75 L 1048.18,3111.06 L 1060.17,3094.07 L 1070.82,3073.51 L 1078.58,3051.69 L 1083.29,3029.01 L 1084.87,3005.9 L 1083.29,2982.8 L 1078.58,2960.12 L 1070.82,2938.3 L 1060.17,2917.74 L 1048.18,2900.75 L 1019.86,2929.06 z " style="fill-opacity:1.000000;fill:rgb(103,198,105);stroke:rgb(0,0,0);stroke-width:2"/></g>
<g fill-rule="evenodd"><path d="M 3918.76,91.3265 L 3919.84,85.9325 L 3923.67,81.9805 L 3928.49,80.7085 L 4968.7,80.7245 L 4993.84,80.9185 L 5047.69,84.0245 L 5102.35,90.3545 L 5156,99.7405 L 5209.02,112.203 L 5260.7,127.521 L 5312.47,146.175 L 5362.55,167.573 L 5410.82,191.555 L 5458.61,218.835 L 5503.8,248.211 L 5547.69,280.461 L 5589.65,315.187 L 5629.94,352.665 L 5667.22,391.591 L 5702.58,433.017 L 5735.82,476.869 L 5766.15,522.105 L 5793.57,568.551 L 5806.34,592.883 L 7494.04,3069.03 L 7503.28,3087.41 L 7519.27,3125.26 L 7532.6,3164.85 L 7543.05,3206.07 L 7550.1,3246.5 L 7554.2,3288.83 L 7555.05,3330.6 L 7552.73,3372.32 L 7547.38,3413.01 L 7538.84,3453.91 L 7527,3494.75 L 7512.33,3533.87 L 7494.74,3571.77 L 7474.72,3607.59 L 7451.22,3643.03 L 7425.54,3675.99 L 7397.44,3706.91 L 7367.08,3735.61 L 7335.22,3761.49 L 7300.9,3785.32 L 7264.88,3806.49 L 7226.68,3825.16 L 7187.85,3840.6 L 7147.97,3853.04 L 7107.98,3862.3 L 7066.69,3868.63 L 7024.98,3871.83 L 7003.81,3872.05 L 4260.41,3872.05 L 4255.13,3870.5 L 4251.53,3866.34 L 4250.68,3863.14 L 3918.76,91.3265M 6485.65,3005.9 L 6487.23,3029.01 L 6491.95,3051.69 L 6499.7,3073.51 L 6510.36,3094.07 L 6522.35,3111.06 L 6550.66,3082.75 L 6536.65,3058.75 L 6528.26,3032.92 L 6525.42,3005.91 L 6528.26,2978.89 L 6536.65,2953.06 L 6550.66,2929.06 L 6522.35,2900.75 L 6510.36,2917.74 L 6499.7,2938.3 L 6491.95,2960.12 L 6487.23,2982.8 L 6485.65,3005.9M 6550.35,3138.73 L 6557.49,3144.53 L 6577.27,3156.57 L 6598.52,3165.79 L 6620.82,3172.04 L 6643.76,3175.2 L 6666.92,3175.2 L 6689.86,3172.04 L 6712.17,3165.79 L 6733.41,3156.57 L 6753.2,3144.53 L 6760.33,3138.73 L 6731.72,3110.12 L 6720.3,3118.42 L 6695.49,3129.47 L 6668.92,3135.12 L 6641.76,3135.12 L 6615.19,3129.47 L 6590.38,3118.42 L 6578.96,3110.12 L 6550.35,3138.73M 6550.35,2873.08 L 6578.96,2901.69 L 6590.38,2893.39 L 6615.19,2882.34 L 6641.76,2876.7 L 6668.92,2876.7 L 6695.49,2882.34 L 6720.3,2893.39 L 6731.72,2901.69 L 6760.33,2873.08 L 6753.2,2867.27 L 6733.41,2855.24 L 6712.17,2846.01 L 6689.86,2839.77 L 6666.92,2836.61 L 6643.76,2836.61 L 6620.82,2839.77 L 6598.52,2846.01 L 6577.27,2855.24 L 6557.49,2867.27 L 6550.35,2873.08M 6760.02,2929.06 L 6774.03,2953.06 L 6782.42,2978.89 L 6785.26,3005.91 L 6782.42,3032.92 L 6774.03,3058.75 L 6760.02,3082.75 L 6788.33,3111.06 L 6800.32,3094.07 L 6810.98,3073.51 L 6818.74,3051.69 L 6823.45,3029.01 L 6825.03,3005.9 L 6823.45,2982.8 L 6818.74,2960.12 L 6810.98,2938.3 L 6800.32,2917.74 L 6788.33,2900.75 L 6760.02,2929.06 z " style="fill-opacity:1.000000;fill:rgb(115,81,255);stroke:rgb(0,0,0);stroke-width:2"/></g>
</svg>
