<?xml version="1.0" standalone="no"?>
<!DOCTYPE svg PUBLIC "-//W3C//DTD SVG 1.1//EN"
"http://www.w3.org/Graphics/SVG/1.1/DTD/svg11.dtd">
<svg width="366.512" height="189.732" viewBox="0 0 7635.66 3952.76" version="1.1"
xmlns="http://www.w3.org/2000/svg"
xmlns:xlink="http://www.w3.org/1999/xlink">
<g fill-rule="evenodd"><path d="M 20.7285,3284.3 L 39.4824,3174.2 L 39.8529,3172.74 L 80.5731,3068.8 L 1764.18,592.883 L 1764.18,592.883 L 1855.63,449.242 L 1857.74,446.464 L 1973.78,321.768 L 1974.16,321.411 L 2112.25,218.849 L 2266.67,143.053 L 2267.15,142.881 L 2431.16,96.8243 L 2434.59,96.2259 L 2602.09,80.898 L 3642.03,80.7085 L 3647.31,82.2585 L 3650.92,86.4145 L 3651.76,91.3265 L 3319.84,3863.14 L 3317.83,3868.26 L 3313.38,3871.48 L 3310.12,3872.05 L 570.697,3872.05 L 459.126,3860.59 L 458.007,3860.33 L 351.347,3826.52 L 254.94,3772.39 L 251.819,3770.22 L 169.201,3698.3 L 167.196,3696.1 L 100.097,3607.81 L 52.3806,3507.81 L 51.2856,3504.89 L 25.1813,3398.49 L 24.7025,3394.83 L 20.7285,3284.3M 745.497,3005.9 L 747.077,3029.01 L 751.789,3051.69 L 759.545,3073.51 L 770.201,3094.07 L 782.191,3111.06 L 810.503,3082.75 L 796.496,3058.75 L 788.103,3032.92 L 785.264,3005.91 L 788.103,2978.89 L 796.496,2953.06 L 810.505,2929.06 L 782.191,2900.75 L 770.201,2917.74 L 759.545,2938.3 L 751.789,2960.12 L 747.077,2982.8 L 745.497,3005.9M 810.197,3138.73 L 817.329,3144.53 L 837.117,3156.57 L 858.359,3165.79 L 880.661,3172.04 L 903.605,3175.2 L 926.765,3175.2 L 949.709,3172.04 L 972.009,3165.79 L 993.251,3156.57 L 1013.04,3144.53 L 1020.17,3138.73 L 991.564,3110.12 L 980.146,3118.42 L 955.333,3129.47 L 928.765,3135.12 L 901.604,3135.12 L 875.037,3129.47 L 850.224,3118.42 L 838.804,3110.12 L 810.197,3138.73M 810.197,2873.08 L 838.805,2901.69 L 850.224,2893.39 L 875.037,2882.34 L 901.604,2876.7 L 928.765,2876.7 L 955.333,2882.34 L 980.146,2893.39 L 991.563,2901.69 L 1020.17,2873.08 L 1013.04,2867.27 L 993.251,2855.24 L 972.009,2846.01 L 949.709,2839.77 L 926.765,2836.61 L 903.605,2836.61 L 880.661,2839.77 L 858.359,2846.01 L 837.117,2855.24 L 817.329,2867.27 L 810.197,2873.08M 1019.86,2929.06 L 1033.87,2953.06 L 1042.27,2978.89 L 1045.11,3005.91 L 1042.27,3032.92 L 1033.87,3058.75 L 1019.87,3082.75 L 1048.18,3111.06 L 1060.17,3094.07 L 1070.82,3073.51 L 1078.58,3051.69 L 1083.29,3029.01 L 1084.87,3005.9 L 1083.29,2982.8 L 1078.58,2960.12 L 1070.82,2938.3 L 1060.17,2917.74 L 1048.18,2900.75 L 1019.86,2929.06 z " style="fill-opacity:1.000000;fill:rgb(103,198,105);stroke:rgb(0,0,0);stroke-width:2"/></g>
<g fill-rule="evenodd"><path d="M 3918.76,91.3265 L 3919.84,85.9325 L 3923.67,81.9805 L 3928.49,80.7085 L 4966.54,80.7245 L 5135.88,96.2208 L 5139.43,96.8421 L 5303.15,142.819 L 5303.99,143.12 L 5458.27,218.849 L 5596.26,321.335 L 5596.88,321.909 L 5712.71,446.374 L 5714.97,449.36 L 5806.34,592.883 L 7493.89,3068.81 L 7534.6,3172.71 L 7534.99,3174.28 L 7553.73,3284.3 L 7549.76,3394.95 L 7549.3,3398.4 L 7523.14,3505.05 L 7522.17,3507.63 L 7474.36,3607.81 L 7407.25,3696.11 L 7405.27,3698.3 L 7322.64,3770.22 L 7319.52,3772.39 L 7223.12,3826.52 L 7116.38,3860.35 L 7115.38,3860.59 L 7003.77,3872.05 L 4260.41,3872.05 L 4255.13,3870.5 L 4251.53,3866.34 L 4250.68,3863.14 L 3918.76,91.3265M 6485.65,3005.9 L 6487.23,3029.01 L 6491.95,3051.69 L 6499.7,3073.51 L 6510.36,3094.07 L 6522.35,3111.06 L 6550.66,3082.75 L 6536.65,3058.75 L 6528.26,3032.92 L 6525.42,3005.91 L 6528.26,2978.89 L 6536.65,2953.06 L 6550.66,2929.06 L 6522.35,2900.75 L 6510.36,2917.74 L 6499.7,2938.3 L 6491.95,2960.12 L 6487.23,2982.8 L 6485.65,3005.9M 6550.35,3138.73 L 6557.49,3144.53 L 6577.27,3156.57 L 6598.52,3165.79 L 6620.82,3172.04 L 6643.76,3175.2 L 6666.92,3175.2 L 6689.86,3172.04 L 6712.17,3165.79 L 6733.41,3156.57 L 6753.2,3144.53 L 6760.33,3138.73 L 6731.72,3110.12 L 6720.3,3118.42 L 6695.49,3129.47 L 6668.92,3135.12 L 6641.76,3135.12 L 6615.19,3129.47 L 6590.38,3118.42 L 6578.96,3110.12 L 6550.35,3138.73M 6550.35,2873.08 L 6578.96,2901.69 L 6590.38,2893.39 L 6615.19,2882.34 L 6641.76,2876.7 L 6668.92,2876.7 L 6695.49,2882.34 L 6720.3,2893.39 L 6731.72,2901.69 L 6760.33,2873.08 L 6753.2,2867.27 L 6733.41,2855.24 L 6712.17,2846.01 L 6689.86,2839.77 L 6666.92,2836.61 L 6643.76,2836.61 L 6620.82,2839.77 L 6598.52,2846.01 L 6577.27,2855.24 L 6557.49,2867.27 L 6550.35,2873.08M 6760.02,2929.06 L 6774.03,2953.06 L 6782.42,2978.89 L 6785.26,3005.91 L 6782.42,3032.92 L 6774.03,3058.75 L 6760.02,3082.75 L 6788.33,3111.06 L 6800.32,3094.07 L 6810.98,3073.51 L 6818.74,3051.69 L 6823.45,3029.01 L 6825.03,3005.9 L 6823.45,2982.8 L 6818.74,2960.12 L 6810.98,2938.3 L 6800.32,2917.74 L 6788.33,2900.75 L 6760.02,2929.06 z " style="fill-opacity:1.000000;fill:rgb(115,81,255);stroke:rgb(0,0,0);stroke-width:2"/></g>
</svg>
