<?xml version="1.0" standalone="no"?>
<!DOCTYPE svg PUBLIC "-//W3C//DTD SVG 1.1//EN"
"http://www.w3.org/Graphics/SVG/1.1/DTD/svg11.dtd">
<svg width="366.512" height="189.732" viewBox="0 0 7635.66 3952.76" version="1.1"
xmlns="http://www.w3.org/2000/svg"
xmlns:xlink="http://www.w3.org/1999/xlink">
<g fill-rule="evenodd"><path d="M 20.7285,3284.3 L 39.6365,3173.3 L 80.7085,3068.45 L 1764.18,592.883 L 1856.67,447.607 L 1974,321.535 L 2112.25,218.849 L 2266.85,142.965 L 2432.66,96.4025 L 2604.16,80.7085 L 4966.36,80.7085 L 5137.87,96.4025 L 5303.67,142.965 L 5458.27,218.849 L 5596.53,321.535 L 5713.85,447.607 L 5806.34,592.883 L 7493.75,3068.45 L 7534.83,3173.3 L 7553.73,3284.3 L 7549.69,3396.83 L 7522.86,3506.19 L 7474.36,3607.81 L 7406.23,3697.46 L 7321.3,3771.39 L 7223.12,3826.52 L 7115.78,3860.54 L 7003.77,3872.05 L 570.697,3872.05 L 458.683,3860.54 L 351.347,3826.52 L 253.163,3771.39 L 168.231,3697.46 L 100.097,3607.81 L 51.6045,3506.19 L 24.7745,3396.83 L 20.7285,3284.3 z " style="fill-opacity:1.000000;fill:rgb(103,198,105);stroke:rgb(0,0,0);stroke-width:2"/></g>
</svg>
