<?xml version="1.0" standalone="no"?>
<!DOCTYPE svg PUBLIC "-//W3C//DTD SVG 1.1//EN"
"http://www.w3.org/Graphics/SVG/1.1/DTD/svg11.dtd">
<svg width="366.512" height="189.732" viewBox="0 0 7635.66 3952.76" version="1.1"
xmlns="http://www.w3.org/2000/svg"
xmlns:xlink="http://www.w3.org/1999/xlink">
<polyline points="-18.6175,3285.71 -14.5715,3398.24 -14.2215,3402.25 -13.4635,3406.21 13.3665,3515.57 14.5245,3519.42 16.0705,3523.14 64.5625,3624.76 66.4805,3628.3 68.7505,3631.63 136.885,3721.28 139.483,3724.36 142.381,3727.15 227.313,3801.08 230.481,3803.57 233.887,3805.72 332.071,3860.85 335.679,3862.64 339.449,3864.05 446.785,3898.07 450.681,3899.09 454.661,3899.71 566.675,3911.21 570.697,3911.42 7003.77,3911.42 7007.79,3911.21 7119.8,3899.71 7123.78,3899.09 7127.67,3898.07 7235.01,3864.05 7238.78,3862.64 7242.39,3860.85 7340.57,3805.72 7343.98,3803.57 7347.15,3801.08 7432.08,3727.15 7434.98,3724.36 7437.57,3721.28 7505.71,3631.63 7507.98,3628.31 7509.89,3624.76 7558.39,3523.14 7559.93,3519.42 7561.09,3515.57 7587.92,3406.21 7588.68,3402.25 7589.03,3398.24 7593.08,3285.71 7593.01,3281.69 7592.54,3277.69 7573.64,3166.68 7572.76,3162.75 7571.48,3158.93 7530.41,3054.09 7528.57,3050.07 7526.28,3046.28 5839.22,571.217 5747.06,426.463 5742.67,420.785 5625.35,294.713 5620,289.927 5481.74,187.241 5475.62,183.505 5321.02,107.621 5314.32,105.061 5148.51,58.4985 5141.45,57.1945 4969.95,41.5005 4966.36,41.3365 2604.16,41.3365 2600.57,41.5005 2429.07,57.1945 2422.01,58.4985 2256.21,105.061 2249.5,107.621 2094.91,183.505 2088.78,187.241 1950.52,289.927 1945.17,294.713 1827.85,420.785 1823.46,426.463 1731.29,571.235 48.1525,3046.31 45.8825,3050.09 44.0505,3054.09 2.9785,3158.93 1.7025,3162.75 0.824504,3166.68 -18.0835,3277.69 -18.5555,3281.69 -18.6175,3285.71" style="stroke:rgb(103,198,105);stroke-width:78.740157;fill:none;stroke-opacity:0.5;stroke-linecap:round;stroke-linejoin:round;;fill:none"/>
<polyline points="-18.6175,3285.71 -14.5715,3398.24 -14.2215,3402.25 -13.4635,3406.21 13.3665,3515.57 14.5245,3519.42 16.0705,3523.14 64.5625,3624.76 66.4805,3628.3 68.7505,3631.63 136.885,3721.28 139.483,3724.36 142.381,3727.15 227.313,3801.08 230.481,3803.57 233.887,3805.72 332.071,3860.85 335.679,3862.64 339.449,3864.05 446.785,3898.07 450.681,3899.09 454.661,3899.71 566.675,3911.21 570.697,3911.42 7003.77,3911.42 7007.79,3911.21 7119.8,3899.71 7123.78,3899.09 7127.67,3898.07 7235.01,3864.05 7238.78,3862.64 7242.39,3860.85 7340.57,3805.72 7343.98,3803.57 7347.15,3801.08 7432.08,3727.15 7434.98,3724.36 7437.57,3721.28 7505.71,3631.63 7507.98,3628.31 7509.89,3624.76 7558.39,3523.14 7559.93,3519.42 7561.09,3515.57 7587.92,3406.21 7588.68,3402.25 7589.03,3398.24 7593.08,3285.71 7593.01,3281.69 7592.54,3277.69 7573.64,3166.68 7572.76,3162.75 7571.48,3158.93 7530.41,3054.09 7528.57,3050.07 7526.28,3046.28 5839.22,571.217 5747.06,426.463 5742.67,420.785 5625.35,294.713 5620,289.927 5481.74,187.241 5475.62,183.505 5321.02,107.621 5314.32,105.061 5148.51,58.4985 5141.45,57.1945 4969.95,41.5005 4966.36,41.3365 2604.16,41.3365 2600.57,41.5005 2429.07,57.1945 2422.01,58.4985 2256.21,105.061 2249.5,107.621 2094.91,183.505 2088.78,187.241 1950.52,289.927 1945.17,294.713 1827.85,420.785 1823.46,426.463 1731.29,571.235 48.1525,3046.31 45.8825,3050.09 44.0505,3054.09 2.9785,3158.93 1.7025,3162.75 0.824504,3166.68 -18.0835,3277.69 -18.5555,3281.69 -18.6175,3285.71" style="stroke:rgb(0,0,0);stroke-width:1px;fill:none;stroke-opacity:1;stroke-linecap:round;stroke-linejoin:round;;fill:none"/>
</svg>
