<?xml version="1.0" standalone="no"?>
<!DOCTYPE svg PUBLIC "-//W3C//DTD SVG 1.1//EN"
"http://www.w3.org/Graphics/SVG/1.1/DTD/svg11.dtd">
<svg width="366.512" height="189.732" viewBox="0 0 7635.66 3952.76" version="1.1"
xmlns="http://www.w3.org/2000/svg"
xmlns:xlink="http://www.w3.org/1999/xlink">
<polyline points="819.209,2873.54 820.823,2872.22 839.905,2860.62 860.387,2851.72 881.893,2845.7 904.017,2842.66 926.351,2842.66 948.475,2845.7 969.979,2851.72 990.461,2860.62 1009.54,2872.22 1011.16,2873.54 990.939,2893.76 982.605,2887.86 956.587,2876.43 929.397,2870.68 901.603,2870.65 873.167,2876.59 847.765,2887.86 839.429,2893.76 819.209,2873.54 828.723,2874.5 840.053,2885.83 839.877,2887.59 840.053,2885.83 844.177,2882.91 871.299,2870.84 900.339,2864.67 930.029,2864.67 957.845,2870.51 960.251,2871.29 986.193,2882.91 990.315,2885.83 990.491,2887.59 990.315,2885.83 1001.64,2874.5 1005.36,2874.05 1001.64,2874.5 987.673,2866 967.949,2857.44 947.241,2851.63 925.937,2848.71 904.431,2848.69 883.123,2851.62 862.413,2857.42 842.687,2865.99 828.723,2874.5 838.441,2875.67 840.729,2877.95 840.493,2879.23 840.729,2877.95 842.845,2876.82 867.657,2865.77 871.265,2864.6 899.707,2858.65 928.765,2858.55 932.537,2858.95 960.939,2865.09 987.523,2876.82 989.639,2877.95 989.873,2879.23 989.639,2877.95 991.925,2875.67 995.639,2875.22 991.925,2875.67 984.885,2871.39 965.919,2863.15 946.007,2857.57 925.523,2854.75 904.845,2854.74 884.357,2857.55 864.443,2863.13 845.475,2871.37 838.441,2875.67" style="stroke:rgb(103,198,105);stroke-width:12.094488;fill:none;stroke-opacity:0.5;stroke-linecap:round;stroke-linejoin:round;;fill:none"/>
<polyline points="819.209,2873.54 820.823,2872.22 839.905,2860.62 860.387,2851.72 881.893,2845.7 904.017,2842.66 926.351,2842.66 948.475,2845.7 969.979,2851.72 990.461,2860.62 1009.54,2872.22 1011.16,2873.54 990.939,2893.76 982.605,2887.86 956.587,2876.43 929.397,2870.68 901.603,2870.65 873.167,2876.59 847.765,2887.86 839.429,2893.76 819.209,2873.54 828.723,2874.5 840.053,2885.83 839.877,2887.59 840.053,2885.83 844.177,2882.91 871.299,2870.84 900.339,2864.67 930.029,2864.67 957.845,2870.51 960.251,2871.29 986.193,2882.91 990.315,2885.83 990.491,2887.59 990.315,2885.83 1001.64,2874.5 1005.36,2874.05 1001.64,2874.5 987.673,2866 967.949,2857.44 947.241,2851.63 925.937,2848.71 904.431,2848.69 883.123,2851.62 862.413,2857.42 842.687,2865.99 828.723,2874.5 838.441,2875.67 840.729,2877.95 840.493,2879.23 840.729,2877.95 842.845,2876.82 867.657,2865.77 871.265,2864.6 899.707,2858.65 928.765,2858.55 932.537,2858.95 960.939,2865.09 987.523,2876.82 989.639,2877.95 989.873,2879.23 989.639,2877.95 991.925,2875.67 995.639,2875.22 991.925,2875.67 984.885,2871.39 965.919,2863.15 946.007,2857.57 925.523,2854.75 904.845,2854.74 884.357,2857.55 864.443,2863.13 845.475,2871.37 838.441,2875.67" style="stroke:rgb(0,0,0);stroke-width:1px;fill:none;stroke-opacity:1;stroke-linecap:round;stroke-linejoin:round;;fill:none"/>
<polyline points="751.557,3005.9 753.081,3028.18 757.625,3050.05 765.103,3071.09 775.379,3090.92 782.991,3101.7 802.929,3081.77 790.977,3061.22 782.351,3034.78 779.215,3005.9 782.351,2977.02 790.977,2950.59 802.931,2930.04 782.991,2910.1 775.379,2920.89 765.103,2940.71 757.625,2961.76 753.081,2983.62 751.557,3005.9 757.605,3005.9 759.071,3027.36 763.447,3048.42 770.645,3068.69 780.557,3087.77 783.791,3092.35 783.235,3096.31 783.791,3092.35 795.357,3080.79 796.921,3080.99 795.357,3080.79 785.459,3063.69 776.599,3036.65 776.075,3034.18 773.235,3007.17 773.235,3004.64 776.075,2977.63 776.599,2975.15 785.459,2948.11 795.357,2931.02 796.923,2930.81 795.357,2931.02 783.791,2919.45 783.235,2915.49 783.791,2919.45 780.557,2924.04 770.645,2943.12 763.447,2963.39 759.071,2984.45 757.605,3005.9 763.665,3005.9 765.077,3026.54 769.285,3046.78 776.209,3066.27 784.793,3082.8 784.151,3086.94 784.793,3082.8 787.783,3079.81 789.339,3080.01 787.783,3079.81 779.939,3066.17 770.849,3038.52 770.061,3034.81 767.121,3005.9 770.061,2977 770.849,2973.29 779.941,2945.64 787.783,2932 789.341,2931.79 787.783,2932 784.793,2929.01 784.151,2924.86 784.793,2929.01 776.209,2945.54 769.285,2965.02 765.077,2985.27 763.665,3005.9" style="stroke:rgb(103,198,105);stroke-width:12.094488;fill:none;stroke-opacity:0.5;stroke-linecap:round;stroke-linejoin:round;;fill:none"/>
<polyline points="751.557,3005.9 753.081,3028.18 757.625,3050.05 765.103,3071.09 775.379,3090.92 782.991,3101.7 802.929,3081.77 790.977,3061.22 782.351,3034.78 779.215,3005.9 782.351,2977.02 790.977,2950.59 802.931,2930.04 782.991,2910.1 775.379,2920.89 765.103,2940.71 757.625,2961.76 753.081,2983.62 751.557,3005.9 757.605,3005.9 759.071,3027.36 763.447,3048.42 770.645,3068.69 780.557,3087.77 783.791,3092.35 783.235,3096.31 783.791,3092.35 795.357,3080.79 796.921,3080.99 795.357,3080.79 785.459,3063.69 776.599,3036.65 776.075,3034.18 773.235,3007.17 773.235,3004.64 776.075,2977.63 776.599,2975.15 785.459,2948.11 795.357,2931.02 796.923,2930.81 795.357,2931.02 783.791,2919.45 783.235,2915.49 783.791,2919.45 780.557,2924.04 770.645,2943.12 763.447,2963.39 759.071,2984.45 757.605,3005.9 763.665,3005.9 765.077,3026.54 769.285,3046.78 776.209,3066.27 784.793,3082.8 784.151,3086.94 784.793,3082.8 787.783,3079.81 789.339,3080.01 787.783,3079.81 779.939,3066.17 770.849,3038.52 770.061,3034.81 767.121,3005.9 770.061,2977 770.849,2973.29 779.941,2945.64 787.783,2932 789.341,2931.79 787.783,2932 784.793,2929.01 784.151,2924.86 784.793,2929.01 776.209,2945.54 769.285,2965.02 765.077,2985.27 763.665,3005.9" style="stroke:rgb(0,0,0);stroke-width:1px;fill:none;stroke-opacity:1;stroke-linecap:round;stroke-linejoin:round;;fill:none"/>
<polyline points="819.209,3138.27 820.823,3139.58 839.905,3151.18 860.387,3160.08 881.893,3166.11 904.017,3169.15 926.351,3169.15 948.475,3166.11 969.979,3160.08 990.461,3151.18 1009.54,3139.58 1011.16,3138.27 990.939,3118.05 982.605,3123.94 956.587,3135.38 929.397,3141.13 901.603,3141.16 873.167,3135.22 847.765,3123.94 839.427,3118.05 819.209,3138.27 828.723,3137.31 840.051,3125.98 839.875,3124.22 840.051,3125.98 844.177,3128.89 871.299,3140.97 900.339,3147.14 930.029,3147.14 957.845,3141.3 960.251,3140.52 986.193,3128.89 990.315,3125.98 990.491,3124.22 990.315,3125.98 1001.64,3137.31 1005.36,3137.75 1001.64,3137.31 987.673,3145.8 967.949,3154.37 947.241,3160.17 925.937,3163.1 904.431,3163.11 883.123,3160.19 862.413,3154.38 842.687,3145.81 828.723,3137.31 838.441,3136.14 840.727,3133.85 840.493,3132.58 840.727,3133.85 842.845,3134.99 867.657,3146.04 871.265,3147.21 899.707,3153.16 928.765,3153.26 932.537,3152.86 960.939,3146.72 987.523,3134.99 989.639,3133.85 989.875,3132.58 989.639,3133.85 991.925,3136.14 995.639,3136.59 991.925,3136.14 984.885,3140.42 965.919,3148.66 946.007,3154.24 925.523,3157.05 904.845,3157.07 884.357,3154.25 864.443,3148.67 845.475,3140.43 838.441,3136.14" style="stroke:rgb(103,198,105);stroke-width:12.094488;fill:none;stroke-opacity:0.5;stroke-linecap:round;stroke-linejoin:round;;fill:none"/>
<polyline points="819.209,3138.27 820.823,3139.58 839.905,3151.18 860.387,3160.08 881.893,3166.11 904.017,3169.15 926.351,3169.15 948.475,3166.11 969.979,3160.08 990.461,3151.18 1009.54,3139.58 1011.16,3138.27 990.939,3118.05 982.605,3123.94 956.587,3135.38 929.397,3141.13 901.603,3141.16 873.167,3135.22 847.765,3123.94 839.427,3118.05 819.209,3138.27 828.723,3137.31 840.051,3125.98 839.875,3124.22 840.051,3125.98 844.177,3128.89 871.299,3140.97 900.339,3147.14 930.029,3147.14 957.845,3141.3 960.251,3140.52 986.193,3128.89 990.315,3125.98 990.491,3124.22 990.315,3125.98 1001.64,3137.31 1005.36,3137.75 1001.64,3137.31 987.673,3145.8 967.949,3154.37 947.241,3160.17 925.937,3163.1 904.431,3163.11 883.123,3160.19 862.413,3154.38 842.687,3145.81 828.723,3137.31 838.441,3136.14 840.727,3133.85 840.493,3132.58 840.727,3133.85 842.845,3134.99 867.657,3146.04 871.265,3147.21 899.707,3153.16 928.765,3153.26 932.537,3152.86 960.939,3146.72 987.523,3134.99 989.639,3133.85 989.875,3132.58 989.639,3133.85 991.925,3136.14 995.639,3136.59 991.925,3136.14 984.885,3140.42 965.919,3148.66 946.007,3154.24 925.523,3157.05 904.845,3157.07 884.357,3154.25 864.443,3148.67 845.475,3140.43 838.441,3136.14" style="stroke:rgb(0,0,0);stroke-width:1px;fill:none;stroke-opacity:1;stroke-linecap:round;stroke-linejoin:round;;fill:none"/>
<polyline points="1027.44,2930.04 1039.39,2950.59 1048.02,2977.02 1051.15,3005.9 1048.02,3034.78 1039.39,3061.22 1027.44,3081.77 1047.37,3101.7 1054.99,3090.92 1065.26,3071.09 1072.74,3050.05 1077.28,3028.18 1078.81,3005.9 1077.28,2983.62 1072.74,2961.76 1065.26,2940.71 1054.99,2920.89 1047.37,2910.1 1027.44,2930.04 1035.01,2931.02 1044.32,2946.96 1045.37,2949.32 1053.77,2975.15 1054.29,2977.63 1057.2,3005.9 1054.1,3035.43 1044.91,3063.69 1035.01,3080.79 1033.44,3080.99 1035.01,3080.79 1046.57,3092.35 1047.13,3096.31 1046.57,3092.35 1049.81,3087.77 1059.7,3068.68 1066.9,3048.41 1071.28,3027.36 1072.75,3005.9 1071.28,2984.45 1066.9,2963.39 1059.7,2943.13 1049.81,2924.04 1046.57,2919.45 1047.13,2915.49 1046.57,2919.45 1035.01,2931.02 1042.58,2932 1049.54,2943.91 1051.13,2947.45 1060.01,2975.12 1063.25,3005.9 1060.31,3034.81 1059.52,3038.52 1050.43,3066.17 1042.58,3079.81 1041.03,3080.02 1042.58,3079.81 1045.57,3082.8 1046.22,3086.94 1045.57,3082.8 1054.14,3066.26 1061.07,3046.78 1065.27,3026.53 1066.69,3005.9 1065.27,2985.27 1061.07,2965.03 1054.14,2945.54 1045.57,2929.01 1046.22,2924.86 1045.57,2929.01 1042.58,2932" style="stroke:rgb(103,198,105);stroke-width:12.094488;fill:none;stroke-opacity:0.5;stroke-linecap:round;stroke-linejoin:round;;fill:none"/>
<polyline points="1027.44,2930.04 1039.39,2950.59 1048.02,2977.02 1051.15,3005.9 1048.02,3034.78 1039.39,3061.22 1027.44,3081.77 1047.37,3101.7 1054.99,3090.92 1065.26,3071.09 1072.74,3050.05 1077.28,3028.18 1078.81,3005.9 1077.28,2983.62 1072.74,2961.76 1065.26,2940.71 1054.99,2920.89 1047.37,2910.1 1027.44,2930.04 1035.01,2931.02 1044.32,2946.96 1045.37,2949.32 1053.77,2975.15 1054.29,2977.63 1057.2,3005.9 1054.1,3035.43 1044.91,3063.69 1035.01,3080.79 1033.44,3080.99 1035.01,3080.79 1046.57,3092.35 1047.13,3096.31 1046.57,3092.35 1049.81,3087.77 1059.7,3068.68 1066.9,3048.41 1071.28,3027.36 1072.75,3005.9 1071.28,2984.45 1066.9,2963.39 1059.7,2943.13 1049.81,2924.04 1046.57,2919.45 1047.13,2915.49 1046.57,2919.45 1035.01,2931.02 1042.58,2932 1049.54,2943.91 1051.13,2947.45 1060.01,2975.12 1063.25,3005.9 1060.31,3034.81 1059.52,3038.52 1050.43,3066.17 1042.58,3079.81 1041.03,3080.02 1042.58,3079.81 1045.57,3082.8 1046.22,3086.94 1045.57,3082.8 1054.14,3066.26 1061.07,3046.78 1065.27,3026.53 1066.69,3005.9 1065.27,2985.27 1061.07,2965.03 1054.14,2945.54 1045.57,2929.01 1046.22,2924.86 1045.57,2929.01 1042.58,2932" style="stroke:rgb(0,0,0);stroke-width:1px;fill:none;stroke-opacity:1;stroke-linecap:round;stroke-linejoin:round;;fill:none"/>
<polyline points="3782.24,3023.56 3707.57,3872.05 3713.64,3872.05 3782.24,3092.54 3782.24,3161.52 3719.71,3872.05 3701.5,3872.05 3782.24,2954.57 3782.24,2885.59 3695.43,3872.05 3701.5,3872.05 3683.29,3872.05 3689.36,3872.04 3782.24,2816.61 3782.24,2747.62 3683.29,3872.05 3677.22,3872.05 3782.24,2678.64 3782.24,2609.66 3671.15,3872.05 3677.22,3872.05 3659.01,3872.05 3665.08,3872.04 3782.24,2540.67 3782.24,2471.69 3659.01,3872.05 3580.09,3872.05 3586.16,3872.04 3782.24,1643.89 3782.24,1574.9 3580.09,3872.05 3574.02,3872.05 3782.24,1505.92 3782.24,1436.94 3567.95,3872.05 3574.02,3872.05 3561.88,3872.05 3782.24,1367.95 3782.24,1298.97 3555.81,3872.05 3561.88,3872.05 3525.46,3872.05 3531.53,3872.04 3782.24,1023.04 3782.24,954.053 3525.46,3872.05 3470.82,3872.05 3476.89,3872.04 3782.24,402.185 3782.24,471.169 3482.96,3872.04 3440.47,3872.05 3446.54,3872.04 3778.26,102.459 3778.64,86.0965 3778.07,80.7085 3765.93,80.7085 3772,80.7085 3772.6,86.3445 3772.24,101.929 3440.47,3872.05 3391.72,3872.05 3724.05,97.6865 3724.26,88.3365 3723.45,80.7085 3717.39,80.7085 3718.22,88.5865 3718.02,97.1565 3386.1,3868.97 3385.61,3872.05 3391.72,3872.05 3379.5,3872.05 3380.08,3868.44 3712,96.6265 3712.18,88.8345 3711.29,80.7085 3705.16,80.7085 3706.14,89.0845 3705.97,96.0965 3374.06,3867.91 3373.39,3872.05 3379.5,3872.05 3367.28,3872.05 3368.03,3867.38 3699.95,95.5665 3700.1,89.3325 3699.02,80.7085 3692.89,80.7085 3694.05,89.5825 3693.93,95.0365 3362.01,3866.85 3361.17,3872.05 3367.28,3872.05 3354.97,3872.05 3355.98,3866.32 3687.9,94.5065 3688.01,89.8305 3686.75,80.7085 3680.56,80.7085 3681.97,90.0805 3681.88,93.9765 3349.96,3865.79 3349.28,3870.05 3348.65,3872.05 3354.97,3872.05 3322.51,3872.05 3321.38,3873.16 3316.14,3876.86 3314.4,3877.44 3310.12,3878.09 570.697,3878.09 458.507,3866.6 456.179,3866.09 348.385,3831.79 251.979,3777.66 248.369,3775.19 164.725,3702.37 162.381,3699.75 94.9325,3610.96 46.9225,3510.42 45.4125,3506.33 19.3065,3399.93 18.7045,3395.61 14.6945,3283.9 33.5205,3173.18 34.2205,3170.54 75.5725,3065.4 1759.13,589.557 1850.53,445.995 1853.31,442.343 1970.56,316.555 2109.59,213.419 2264.62,137.363 2430.12,90.8665 2434.04,90.2025 2602.09,74.8505 3642.03,74.6605 3649.02,76.4545 3651.05,77.5045 3655.48,82.4525 3656.59,84.3325 3657.78,91.8565 3325.86,3863.67 3323.46,3870.47 3322.51,3872.05 3342.33,3872.05 3343.39,3868.67 3343.94,3865.26 3675.85,93.4465 3675.93,90.3285 3675.6,87.2285 3674.32,80.7085 3653.97,80.7085 3661.54,80.7085 3662.83,84.3645 3663.68,89.2765 3663.81,92.3865 3331.89,3864.2 3331.1,3867.55 3329.34,3872.05 3335.83,3872.05 3337.5,3867.29 3337.91,3864.73 3669.83,92.9165 3669.64,88.2525 3668.09,80.7085 3782.24,80.7085 3782.24,3230.51 3725.78,3872.05 3731.85,3872.05 3782.24,3299.49 3782.24,3230.51 3782.24,3368.47 3737.92,3872.05 3743.99,3872.05 3782.24,3437.46 3782.24,3368.47 3782.24,3506.44 3750.07,3872.05 3756.14,3872.05 3782.24,3575.42 3782.24,3506.44 3782.24,3644.41 3762.21,3872.05 3768.28,3872.05 3782.24,3713.39 3782.24,3644.41 3782.24,3782.37 3774.35,3872.05 3780.42,3872.05 3782.24,3851.36 3782.24,3782.37 3782.24,3872.05 3652.94,3872.05 3782.24,2402.7 3782.24,2333.72 3646.87,3872.05 3640.8,3872.05 3782.24,2264.74 3782.24,2195.75 3634.73,3872.04 3628.65,3872.05 3782.24,2126.77 3782.24,2057.79 3622.58,3872.04 3592.23,3872.05 3782.24,1712.87 3782.24,1781.85 3598.3,3872.05 3604.37,3872.05 3782.24,1850.84 3782.24,1919.82 3610.44,3872.05 3616.51,3872.04 3782.24,1988.8" style="stroke:rgb(103,198,105);stroke-width:12.094488;fill:none;stroke-opacity:0.5;stroke-linecap:round;stroke-linejoin:round;;fill:none"/>
<polyline points="3782.24,3023.56 3707.57,3872.05 3713.64,3872.05 3782.24,3092.54 3782.24,3161.52 3719.71,3872.05 3701.5,3872.05 3782.24,2954.57 3782.24,2885.59 3695.43,3872.05 3701.5,3872.05 3683.29,3872.05 3689.36,3872.04 3782.24,2816.61 3782.24,2747.62 3683.29,3872.05 3677.22,3872.05 3782.24,2678.64 3782.24,2609.66 3671.15,3872.05 3677.22,3872.05 3659.01,3872.05 3665.08,3872.04 3782.24,2540.67 3782.24,2471.69 3659.01,3872.05 3580.09,3872.05 3586.16,3872.04 3782.24,1643.89 3782.24,1574.9 3580.09,3872.05 3574.02,3872.05 3782.24,1505.92 3782.24,1436.94 3567.95,3872.05 3574.02,3872.05 3561.88,3872.05 3782.24,1367.95 3782.24,1298.97 3555.81,3872.05 3561.88,3872.05 3525.46,3872.05 3531.53,3872.04 3782.24,1023.04 3782.24,954.053 3525.46,3872.05 3470.82,3872.05 3476.89,3872.04 3782.24,402.185 3782.24,471.169 3482.96,3872.04 3440.47,3872.05 3446.54,3872.04 3778.26,102.459 3778.64,86.0965 3778.07,80.7085 3765.93,80.7085 3772,80.7085 3772.6,86.3445 3772.24,101.929 3440.47,3872.05 3391.72,3872.05 3724.05,97.6865 3724.26,88.3365 3723.45,80.7085 3717.39,80.7085 3718.22,88.5865 3718.02,97.1565 3386.1,3868.97 3385.61,3872.05 3391.72,3872.05 3379.5,3872.05 3380.08,3868.44 3712,96.6265 3712.18,88.8345 3711.29,80.7085 3705.16,80.7085 3706.14,89.0845 3705.97,96.0965 3374.06,3867.91 3373.39,3872.05 3379.5,3872.05 3367.28,3872.05 3368.03,3867.38 3699.95,95.5665 3700.1,89.3325 3699.02,80.7085 3692.89,80.7085 3694.05,89.5825 3693.93,95.0365 3362.01,3866.85 3361.17,3872.05 3367.28,3872.05 3354.97,3872.05 3355.98,3866.32 3687.9,94.5065 3688.01,89.8305 3686.75,80.7085 3680.56,80.7085 3681.97,90.0805 3681.88,93.9765 3349.96,3865.79 3349.28,3870.05 3348.65,3872.05 3354.97,3872.05 3322.51,3872.05 3321.38,3873.16 3316.14,3876.86 3314.4,3877.44 3310.12,3878.09 570.697,3878.09 458.507,3866.6 456.179,3866.09 348.385,3831.79 251.979,3777.66 248.369,3775.19 164.725,3702.37 162.381,3699.75 94.9325,3610.96 46.9225,3510.42 45.4125,3506.33 19.3065,3399.93 18.7045,3395.61 14.6945,3283.9 33.5205,3173.18 34.2205,3170.54 75.5725,3065.4 1759.13,589.557 1850.53,445.995 1853.31,442.343 1970.56,316.555 2109.59,213.419 2264.62,137.363 2430.12,90.8665 2434.04,90.2025 2602.09,74.8505 3642.03,74.6605 3649.02,76.4545 3651.05,77.5045 3655.48,82.4525 3656.59,84.3325 3657.78,91.8565 3325.86,3863.67 3323.46,3870.47 3322.51,3872.05 3342.33,3872.05 3343.39,3868.67 3343.94,3865.26 3675.85,93.4465 3675.93,90.3285 3675.6,87.2285 3674.32,80.7085 3653.97,80.7085 3661.54,80.7085 3662.83,84.3645 3663.68,89.2765 3663.81,92.3865 3331.89,3864.2 3331.1,3867.55 3329.34,3872.05 3335.83,3872.05 3337.5,3867.29 3337.91,3864.73 3669.83,92.9165 3669.64,88.2525 3668.09,80.7085 3782.24,80.7085 3782.24,3230.51 3725.78,3872.05 3731.85,3872.05 3782.24,3299.49 3782.24,3230.51 3782.24,3368.47 3737.92,3872.05 3743.99,3872.05 3782.24,3437.46 3782.24,3368.47 3782.24,3506.44 3750.07,3872.05 3756.14,3872.05 3782.24,3575.42 3782.24,3506.44 3782.24,3644.41 3762.21,3872.05 3768.28,3872.05 3782.24,3713.39 3782.24,3644.41 3782.24,3782.37 3774.35,3872.05 3780.42,3872.05 3782.24,3851.36 3782.24,3782.37 3782.24,3872.05 3652.94,3872.05 3782.24,2402.7 3782.24,2333.72 3646.87,3872.05 3640.8,3872.05 3782.24,2264.74 3782.24,2195.75 3634.73,3872.04 3628.65,3872.05 3782.24,2126.77 3782.24,2057.79 3622.58,3872.04 3592.23,3872.05 3782.24,1712.87 3782.24,1781.85 3598.3,3872.05 3604.37,3872.05 3782.24,1850.84 3782.24,1919.82 3610.44,3872.05 3616.51,3872.04 3782.24,1988.8" style="stroke:rgb(0,0,0);stroke-width:1px;fill:none;stroke-opacity:1;stroke-linecap:round;stroke-linejoin:round;;fill:none"/>
<polyline points="3782.24,1229.99 3549.74,3872.05 3543.67,3872.05 3782.24,1161 3782.24,1092.02 3537.6,3872.05 3519.38,3872.05 3782.24,885.069 3782.24,816.087 3513.31,3872.04 3507.24,3872.05 3782.24,747.103 3782.24,678.119 3501.17,3872.04 3495.1,3872.05 3782.24,609.135 3782.24,540.153 3489.03,3872.04 3470.82,3872.05 3782.24,333.201 3782.24,264.219 3464.75,3872.05 3458.68,3872.05 3782.24,195.235 3782.24,126.251 3452.61,3872.05 3434.4,3872.05 3766.21,101.397 3766.56,86.5945 3765.93,80.7085 3759.86,80.7085 3760.52,86.8425 3760.19,100.867 3428.33,3872.05 3422.26,3872.05 3754.17,100.337 3754.47,87.0925 3753.8,80.7085 3747.73,80.7085 3748.43,87.3405 3748.14,99.8065 3416.22,3871.62 3416.15,3872.05 3410.05,3872.05 3742.12,99.2765 3742.39,87.5905 3741.66,80.7085 3735.59,80.7085 3736.35,87.8385 3736.09,98.7465 3404.18,3870.56 3403.94,3872.05 3397.83,3872.05 3730.07,98.2165 3730.31,88.0885 3729.52,80.7085 3788.28,402.191 4093.63,3872.05 4087.56,3872.05 3788.28,471.175 3788.28,540.159 4081.49,3872.05 4075.42,3872.05 3788.28,609.143 3788.28,678.127 4069.35,3872.05 4063.28,3872.05 3788.28,747.113 3788.28,816.097 4057.21,3872.05 4051.14,3872.05 3788.28,885.081 3788.28,954.065 4045.07,3872.05 4117.92,3872.05 3788.28,126.253 3788.28,80.7085 3798.51,80.7085 3798,84.6865 3798.29,101.929 4130.06,3872.05 4136.13,3872.05 3804.31,101.397 3804.04,85.0185 3804.59,80.7085 3798.51,80.7085 3847.15,80.7085 3841.07,80.7085 3840.27,87.0105 3840.45,98.2165 4172.72,3872.05 4166.61,3872.05 4166.35,3870.56 3834.43,98.7465 3834.23,86.6785 3834.99,80.7085 3828.91,80.7085 3828.19,86.3465 3828.4,99.2765 4160.49,3872.05 4154.38,3872.05 4154.3,3871.62 3822.38,99.8065 3822.15,86.0145 3822.83,80.7085 3816.75,80.7085 3816.12,85.6825 3816.36,100.337 4148.27,3872.05 4142.2,3872.05 3810.33,100.867 3810.08,85.3505 3810.67,80.7085 3788.28,80.7085 3792.43,80.7085 3791.96,84.3545 3792.26,102.459 4123.98,3872.05 4117.92,3872.05 4184.96,3872.05 4184.42,3868.97 3852.5,97.1565 3852.34,87.6745 3853.23,80.7085 3859.31,80.7085 3858.38,88.0065 3858.52,96.6265 4190.44,3868.44 4191.07,3872.05 4184.96,3872.05 4197.19,3872.05 4196.47,3867.91 3864.55,96.0965 3864.42,88.3385 3865.39,80.7085 3871.55,80.7085 3870.46,88.6705 3870.57,95.5665 4202.49,3867.38 4203.31,3872.05 4197.19,3872.05 4248.47,3872.05 4250.56,3874.45 4252.36,3875.87 4258.71,3877.85 4260.41,3878.09 7004.38,3878.06 7115.99,3866.6 7118.21,3866.12 7225.52,3832.06 7322.48,3777.66 7326.61,3774.78 7409.74,3702.36 7412.07,3699.77 7479.53,3610.96 7527.63,3510.23 7528.8,3507.17 7555.17,3399.84 7555.8,3395.16 7559.76,3283.9 7540.95,3173.26 7540.22,3170.5 7499.24,3065.98 5811.39,589.555 5720.07,446.111 5717.13,442.253 5600.99,317.481 5461.87,213.993 5306.65,137.691 5141.07,91.0185 5136.92,90.2625 4966.54,74.6765 3927.71,74.7105 3921.1,76.5065 3919.32,77.7725 3915.5,81.7245 3914.25,83.6425 3913.91,84.7445 3912.72,90.9945 3876.5,89.0025 3912.72,90.9945 4244.66,3863.67 4245.98,3868.75 4248.47,3872.05 4178.84,3872.05 4178.4,3869.5 3846.48,97.6865 3846.31,87.3425 3847.15,80.7085 3916.48,80.7085 3908.99,80.7085 3907.98,83.5565 3906.9,88.9505 3906.72,92.3865 4238.64,3864.2 4239.83,3869.42 4240.9,3872.05 4234.36,3872.05 4232.61,3864.73 3900.69,92.9165 3900.97,87.7645 3902.56,80.7085 3896.27,80.7085 3894.61,89.9985 3894.67,93.4465 4226.59,3865.26 4228.02,3872.05 4221.76,3872.05 4220.56,3865.79 3888.64,93.9765 3888.57,89.6665 3890.05,80.7085 3883.89,80.7085 3882.53,89.3345 3882.62,94.5065 4214.54,3866.32 4215.54,3872.05 4209.42,3872.05 4208.52,3866.85 3876.6,95.0365 3876.5,89.0025 3877.72,80.7085 3876.5,89.0025 3791.96,84.3545 3788.28,80.7085 3788.28,1023.05 4039,3872.05 4032.93,3872.05 3788.28,1092.03 3788.28,1023.05 3788.28,1161.02 4026.85,3872.05 4020.79,3872.05 3788.28,1230 3788.28,1161.02 3788.28,1298.99 4014.72,3872.05 4008.65,3872.05 3788.28,1367.97 3788.28,1298.99 3788.28,1436.96 4002.57,3872.05 3996.5,3872.05 3788.28,1505.94 3788.28,1436.96 3788.28,1574.92 3990.43,3872.05 3984.36,3872.05 3788.28,1643.91 3788.28,1574.92 3788.29,3851.36 3790.11,3872.05 3796.18,3872.05 3788.29,3782.37 3788.28,1712.89 3978.29,3872.05 3862.95,3872.05 3788.29,3023.56 3788.28,1712.89 3788.29,1781.85 3972.22,3872.05 3966.15,3872.05 3788.29,1850.84 3788.28,1712.89 3788.29,3713.39 3802.25,3872.05 3820.46,3872.05 3788.29,3506.44 3788.28,1712.89 3788.29,1919.82 3960.08,3872.05 3954.01,3872.05 3788.29,1988.8 3788.28,1712.89 3788.29,3644.41 3808.32,3872.05 3814.39,3872.05 3788.29,3575.42 3788.28,1712.89 3788.29,2057.79 3947.94,3872.05 3941.87,3872.05 3788.29,2126.77 3788.28,1712.89 3788.29,3437.46 3826.53,3872.05 3832.6,3872.05 3788.29,3368.47 3788.28,1712.89 3788.29,2195.75 3935.8,3872.05 3929.73,3872.05 3788.29,2264.74 3788.28,1712.89 3788.29,3299.49 3838.67,3872.05 3844.74,3872.05 3788.29,3230.51 3788.28,1712.89 3788.29,2333.72 3923.66,3872.05 3917.59,3872.05 3788.29,2402.7 3788.28,1712.89 3788.29,3161.52 3850.81,3872.05 3856.88,3872.05 3788.29,3092.54 3788.28,1712.89 3788.29,2471.69 3911.52,3872.05 3905.45,3872.05 3788.29,2540.67 3788.28,1712.89 3788.29,2954.57 3869.02,3872.05 3875.09,3872.05 3788.29,2885.59 3788.28,1712.89 3788.29,2609.65 3899.38,3872.05 3893.31,3872.05 3788.29,2678.64 3788.28,1712.89 3788.29,2816.61 3881.16,3872.05 3887.23,3872.05 3788.29,2747.62 3788.28,1712.89 3788.29,3872.05 4099.7,3872.05 3788.28,333.205 3788.28,264.223 4105.77,3872.05 4111.84,3872.05 3788.28,195.237" style="stroke:rgb(103,198,105);stroke-width:12.094488;fill:none;stroke-opacity:0.5;stroke-linecap:round;stroke-linejoin:round;;fill:none"/>
<polyline points="3782.24,1229.99 3549.74,3872.05 3543.67,3872.05 3782.24,1161 3782.24,1092.02 3537.6,3872.05 3519.38,3872.05 3782.24,885.069 3782.24,816.087 3513.31,3872.04 3507.24,3872.05 3782.24,747.103 3782.24,678.119 3501.17,3872.04 3495.1,3872.05 3782.24,609.135 3782.24,540.153 3489.03,3872.04 3470.82,3872.05 3782.24,333.201 3782.24,264.219 3464.75,3872.05 3458.68,3872.05 3782.24,195.235 3782.24,126.251 3452.61,3872.05 3434.4,3872.05 3766.21,101.397 3766.56,86.5945 3765.93,80.7085 3759.86,80.7085 3760.52,86.8425 3760.19,100.867 3428.33,3872.05 3422.26,3872.05 3754.17,100.337 3754.47,87.0925 3753.8,80.7085 3747.73,80.7085 3748.43,87.3405 3748.14,99.8065 3416.22,3871.62 3416.15,3872.05 3410.05,3872.05 3742.12,99.2765 3742.39,87.5905 3741.66,80.7085 3735.59,80.7085 3736.35,87.8385 3736.09,98.7465 3404.18,3870.56 3403.94,3872.05 3397.83,3872.05 3730.07,98.2165 3730.31,88.0885 3729.52,80.7085 3788.28,402.191 4093.63,3872.05 4087.56,3872.05 3788.28,471.175 3788.28,540.159 4081.49,3872.05 4075.42,3872.05 3788.28,609.143 3788.28,678.127 4069.35,3872.05 4063.28,3872.05 3788.28,747.113 3788.28,816.097 4057.21,3872.05 4051.14,3872.05 3788.28,885.081 3788.28,954.065 4045.07,3872.05 4117.92,3872.05 3788.28,126.253 3788.28,80.7085 3798.51,80.7085 3798,84.6865 3798.29,101.929 4130.06,3872.05 4136.13,3872.05 3804.31,101.397 3804.04,85.0185 3804.59,80.7085 3798.51,80.7085 3847.15,80.7085 3841.07,80.7085 3840.27,87.0105 3840.45,98.2165 4172.72,3872.05 4166.61,3872.05 4166.35,3870.56 3834.43,98.7465 3834.23,86.6785 3834.99,80.7085 3828.91,80.7085 3828.19,86.3465 3828.4,99.2765 4160.49,3872.05 4154.38,3872.05 4154.3,3871.62 3822.38,99.8065 3822.15,86.0145 3822.83,80.7085 3816.75,80.7085 3816.12,85.6825 3816.36,100.337 4148.27,3872.05 4142.2,3872.05 3810.33,100.867 3810.08,85.3505 3810.67,80.7085 3788.28,80.7085 3792.43,80.7085 3791.96,84.3545 3792.26,102.459 4123.98,3872.05 4117.92,3872.05 4184.96,3872.05 4184.42,3868.97 3852.5,97.1565 3852.34,87.6745 3853.23,80.7085 3859.31,80.7085 3858.38,88.0065 3858.52,96.6265 4190.44,3868.44 4191.07,3872.05 4184.96,3872.05 4197.19,3872.05 4196.47,3867.91 3864.55,96.0965 3864.42,88.3385 3865.39,80.7085 3871.55,80.7085 3870.46,88.6705 3870.57,95.5665 4202.49,3867.38 4203.31,3872.05 4197.19,3872.05 4248.47,3872.05 4250.56,3874.45 4252.36,3875.87 4258.71,3877.85 4260.41,3878.09 7004.38,3878.06 7115.99,3866.6 7118.21,3866.12 7225.52,3832.06 7322.48,3777.66 7326.61,3774.78 7409.74,3702.36 7412.07,3699.77 7479.53,3610.96 7527.63,3510.23 7528.8,3507.17 7555.17,3399.84 7555.8,3395.16 7559.76,3283.9 7540.95,3173.26 7540.22,3170.5 7499.24,3065.98 5811.39,589.555 5720.07,446.111 5717.13,442.253 5600.99,317.481 5461.87,213.993 5306.65,137.691 5141.07,91.0185 5136.92,90.2625 4966.54,74.6765 3927.71,74.7105 3921.1,76.5065 3919.32,77.7725 3915.5,81.7245 3914.25,83.6425 3913.91,84.7445 3912.72,90.9945 3876.5,89.0025 3912.72,90.9945 4244.66,3863.67 4245.98,3868.75 4248.47,3872.05 4178.84,3872.05 4178.4,3869.5 3846.48,97.6865 3846.31,87.3425 3847.15,80.7085 3916.48,80.7085 3908.99,80.7085 3907.98,83.5565 3906.9,88.9505 3906.72,92.3865 4238.64,3864.2 4239.83,3869.42 4240.9,3872.05 4234.36,3872.05 4232.61,3864.73 3900.69,92.9165 3900.97,87.7645 3902.56,80.7085 3896.27,80.7085 3894.61,89.9985 3894.67,93.4465 4226.59,3865.26 4228.02,3872.05 4221.76,3872.05 4220.56,3865.79 3888.64,93.9765 3888.57,89.6665 3890.05,80.7085 3883.89,80.7085 3882.53,89.3345 3882.62,94.5065 4214.54,3866.32 4215.54,3872.05 4209.42,3872.05 4208.52,3866.85 3876.6,95.0365 3876.5,89.0025 3877.72,80.7085 3876.5,89.0025 3791.96,84.3545 3788.28,80.7085 3788.28,1023.05 4039,3872.05 4032.93,3872.05 3788.28,1092.03 3788.28,1023.05 3788.28,1161.02 4026.85,3872.05 4020.79,3872.05 3788.28,1230 3788.28,1161.02 3788.28,1298.99 4014.72,3872.05 4008.65,3872.05 3788.28,1367.97 3788.28,1298.99 3788.28,1436.96 4002.57,3872.05 3996.5,3872.05 3788.28,1505.94 3788.28,1436.96 3788.28,1574.92 3990.43,3872.05 3984.36,3872.05 3788.28,1643.91 3788.28,1574.92 3788.29,3851.36 3790.11,3872.05 3796.18,3872.05 3788.29,3782.37 3788.28,1712.89 3978.29,3872.05 3862.95,3872.05 3788.29,3023.56 3788.28,1712.89 3788.29,1781.85 3972.22,3872.05 3966.15,3872.05 3788.29,1850.84 3788.28,1712.89 3788.29,3713.39 3802.25,3872.05 3820.46,3872.05 3788.29,3506.44 3788.28,1712.89 3788.29,1919.82 3960.08,3872.05 3954.01,3872.05 3788.29,1988.8 3788.28,1712.89 3788.29,3644.41 3808.32,3872.05 3814.39,3872.05 3788.29,3575.42 3788.28,1712.89 3788.29,2057.79 3947.94,3872.05 3941.87,3872.05 3788.29,2126.77 3788.28,1712.89 3788.29,3437.46 3826.53,3872.05 3832.6,3872.05 3788.29,3368.47 3788.28,1712.89 3788.29,2195.75 3935.8,3872.05 3929.73,3872.05 3788.29,2264.74 3788.28,1712.89 3788.29,3299.49 3838.67,3872.05 3844.74,3872.05 3788.29,3230.51 3788.28,1712.89 3788.29,2333.72 3923.66,3872.05 3917.59,3872.05 3788.29,2402.7 3788.28,1712.89 3788.29,3161.52 3850.81,3872.05 3856.88,3872.05 3788.29,3092.54 3788.28,1712.89 3788.29,2471.69 3911.52,3872.05 3905.45,3872.05 3788.29,2540.67 3788.28,1712.89 3788.29,2954.57 3869.02,3872.05 3875.09,3872.05 3788.29,2885.59 3788.28,1712.89 3788.29,2609.65 3899.38,3872.05 3893.31,3872.05 3788.29,2678.64 3788.28,1712.89 3788.29,2816.61 3881.16,3872.05 3887.23,3872.05 3788.29,2747.62 3788.28,1712.89 3788.29,3872.05 4099.7,3872.05 3788.28,333.205 3788.28,264.223 4105.77,3872.05 4111.84,3872.05 3788.28,195.237" style="stroke:rgb(0,0,0);stroke-width:1px;fill:none;stroke-opacity:1;stroke-linecap:round;stroke-linejoin:round;;fill:none"/>
<polyline points="6559.37,2873.54 6560.98,2872.22 6580.06,2860.62 6600.54,2851.72 6622.05,2845.7 6644.17,2842.66 6666.51,2842.66 6688.63,2845.7 6710.14,2851.72 6730.62,2860.62 6749.7,2872.22 6751.31,2873.54 6731.1,2893.76 6722.76,2887.86 6696.75,2876.43 6669.55,2870.68 6641.76,2870.65 6613.32,2876.59 6587.92,2887.86 6579.59,2893.76 6559.37,2873.54 6568.88,2874.5 6580.21,2885.83 6580.03,2887.59 6580.21,2885.83 6584.33,2882.91 6611.46,2870.84 6640.5,2864.67 6670.19,2864.67 6698,2870.51 6700.41,2871.29 6726.35,2882.91 6730.47,2885.83 6730.65,2887.59 6730.47,2885.83 6741.8,2874.5 6745.52,2874.05 6741.8,2874.5 6727.83,2866 6708.11,2857.44 6687.4,2851.63 6666.09,2848.71 6644.59,2848.69 6623.28,2851.62 6602.57,2857.42 6582.84,2865.99 6568.88,2874.5 6578.6,2875.67 6580.89,2877.95 6580.65,2879.23 6580.89,2877.95 6583,2876.82 6607.81,2865.77 6611.42,2864.6 6639.86,2858.65 6668.92,2858.55 6672.69,2858.95 6701.09,2865.09 6727.68,2876.82 6729.8,2877.95 6730.03,2879.23 6729.8,2877.95 6732.08,2875.67 6735.8,2875.22 6732.08,2875.67 6725.04,2871.39 6706.08,2863.15 6686.16,2857.57 6665.68,2854.75 6645,2854.74 6624.51,2857.55 6604.6,2863.13 6585.63,2871.37 6578.6,2875.67" style="stroke:rgb(103,198,105);stroke-width:12.094488;fill:none;stroke-opacity:0.5;stroke-linecap:round;stroke-linejoin:round;;fill:none"/>
<polyline points="6559.37,2873.54 6560.98,2872.22 6580.06,2860.62 6600.54,2851.72 6622.05,2845.7 6644.17,2842.66 6666.51,2842.66 6688.63,2845.7 6710.14,2851.72 6730.62,2860.62 6749.7,2872.22 6751.31,2873.54 6731.1,2893.76 6722.76,2887.86 6696.75,2876.43 6669.55,2870.68 6641.76,2870.65 6613.32,2876.59 6587.92,2887.86 6579.59,2893.76 6559.37,2873.54 6568.88,2874.5 6580.21,2885.83 6580.03,2887.59 6580.21,2885.83 6584.33,2882.91 6611.46,2870.84 6640.5,2864.67 6670.19,2864.67 6698,2870.51 6700.41,2871.29 6726.35,2882.91 6730.47,2885.83 6730.65,2887.59 6730.47,2885.83 6741.8,2874.5 6745.52,2874.05 6741.8,2874.5 6727.83,2866 6708.11,2857.44 6687.4,2851.63 6666.09,2848.71 6644.59,2848.69 6623.28,2851.62 6602.57,2857.42 6582.84,2865.99 6568.88,2874.5 6578.6,2875.67 6580.89,2877.95 6580.65,2879.23 6580.89,2877.95 6583,2876.82 6607.81,2865.77 6611.42,2864.6 6639.86,2858.65 6668.92,2858.55 6672.69,2858.95 6701.09,2865.09 6727.68,2876.82 6729.8,2877.95 6730.03,2879.23 6729.8,2877.95 6732.08,2875.67 6735.8,2875.22 6732.08,2875.67 6725.04,2871.39 6706.08,2863.15 6686.16,2857.57 6665.68,2854.75 6645,2854.74 6624.51,2857.55 6604.6,2863.13 6585.63,2871.37 6578.6,2875.67" style="stroke:rgb(0,0,0);stroke-width:1px;fill:none;stroke-opacity:1;stroke-linecap:round;stroke-linejoin:round;;fill:none"/>
<polyline points="6491.71,3005.9 6493.24,3028.18 6497.78,3050.05 6505.26,3071.09 6515.54,3090.92 6523.15,3101.7 6543.09,3081.77 6531.13,3061.22 6522.51,3034.78 6519.37,3005.9 6522.51,2977.02 6531.13,2950.59 6543.09,2930.04 6523.15,2910.1 6515.54,2920.89 6505.26,2940.71 6497.78,2961.76 6493.24,2983.62 6491.71,3005.9 6497.76,3005.9 6499.23,3027.36 6503.6,3048.42 6510.8,3068.69 6520.71,3087.77 6523.95,3092.35 6523.39,3096.31 6523.95,3092.35 6535.51,3080.79 6537.08,3080.99 6535.51,3080.79 6525.61,3063.69 6516.76,3036.65 6516.23,3034.18 6513.39,3007.17 6513.39,3004.64 6516.23,2977.63 6516.76,2975.15 6525.61,2948.11 6535.51,2931.02 6537.08,2930.81 6535.51,2931.02 6523.95,2919.45 6523.39,2915.49 6523.95,2919.45 6520.71,2924.04 6510.8,2943.12 6503.6,2963.39 6499.23,2984.45 6497.76,3005.9 6503.82,3005.9 6505.23,3026.54 6509.44,3046.78 6516.37,3066.27 6524.95,3082.8 6524.31,3086.94 6524.95,3082.8 6527.94,3079.81 6529.5,3080.01 6527.94,3079.81 6520.1,3066.17 6511.01,3038.52 6510.22,3034.81 6507.28,3005.9 6510.22,2977 6511.01,2973.29 6520.1,2945.64 6527.94,2932 6529.5,2931.79 6527.94,2932 6524.95,2929.01 6524.31,2924.86 6524.95,2929.01 6516.37,2945.54 6509.44,2965.02 6505.23,2985.27 6503.82,3005.9" style="stroke:rgb(103,198,105);stroke-width:12.094488;fill:none;stroke-opacity:0.5;stroke-linecap:round;stroke-linejoin:round;;fill:none"/>
<polyline points="6491.71,3005.9 6493.24,3028.18 6497.78,3050.05 6505.26,3071.09 6515.54,3090.92 6523.15,3101.7 6543.09,3081.77 6531.13,3061.22 6522.51,3034.78 6519.37,3005.9 6522.51,2977.02 6531.13,2950.59 6543.09,2930.04 6523.15,2910.1 6515.54,2920.89 6505.26,2940.71 6497.78,2961.76 6493.24,2983.62 6491.71,3005.9 6497.76,3005.9 6499.23,3027.36 6503.6,3048.42 6510.8,3068.69 6520.71,3087.77 6523.95,3092.35 6523.39,3096.31 6523.95,3092.35 6535.51,3080.79 6537.08,3080.99 6535.51,3080.79 6525.61,3063.69 6516.76,3036.65 6516.23,3034.18 6513.39,3007.17 6513.39,3004.64 6516.23,2977.63 6516.76,2975.15 6525.61,2948.11 6535.51,2931.02 6537.08,2930.81 6535.51,2931.02 6523.95,2919.45 6523.39,2915.49 6523.95,2919.45 6520.71,2924.04 6510.8,2943.12 6503.6,2963.39 6499.23,2984.45 6497.76,3005.9 6503.82,3005.9 6505.23,3026.54 6509.44,3046.78 6516.37,3066.27 6524.95,3082.8 6524.31,3086.94 6524.95,3082.8 6527.94,3079.81 6529.5,3080.01 6527.94,3079.81 6520.1,3066.17 6511.01,3038.52 6510.22,3034.81 6507.28,3005.9 6510.22,2977 6511.01,2973.29 6520.1,2945.64 6527.94,2932 6529.5,2931.79 6527.94,2932 6524.95,2929.01 6524.31,2924.86 6524.95,2929.01 6516.37,2945.54 6509.44,2965.02 6505.23,2985.27 6503.82,3005.9" style="stroke:rgb(0,0,0);stroke-width:1px;fill:none;stroke-opacity:1;stroke-linecap:round;stroke-linejoin:round;;fill:none"/>
<polyline points="6559.37,3138.27 6560.98,3139.58 6580.06,3151.18 6600.54,3160.08 6622.05,3166.11 6644.17,3169.15 6666.51,3169.15 6688.63,3166.11 6710.14,3160.08 6730.62,3151.18 6749.7,3139.58 6751.31,3138.27 6731.1,3118.05 6722.76,3123.94 6697.36,3135.22 6668.92,3141.16 6641.13,3141.13 6613.94,3135.38 6587.92,3123.94 6579.58,3118.05 6559.37,3138.27 6568.88,3137.31 6580.21,3125.98 6580.03,3124.22 6580.21,3125.98 6584.33,3128.89 6611.46,3140.97 6640.5,3147.14 6670.19,3147.14 6698,3141.3 6700.41,3140.52 6726.35,3128.89 6730.47,3125.98 6730.65,3124.22 6730.47,3125.98 6741.8,3137.31 6745.52,3137.75 6741.8,3137.31 6727.83,3145.8 6708.11,3154.37 6687.4,3160.17 6666.09,3163.1 6644.59,3163.11 6623.28,3160.19 6602.57,3154.38 6582.84,3145.81 6568.88,3137.31 6578.6,3136.14 6580.88,3133.85 6580.65,3132.58 6580.88,3133.85 6583,3134.99 6607.81,3146.04 6611.42,3147.21 6639.86,3153.16 6668.92,3153.26 6672.69,3152.86 6701.09,3146.72 6727.68,3134.99 6729.8,3133.85 6730.03,3132.58 6729.8,3133.85 6732.08,3136.14 6735.8,3136.59 6732.08,3136.14 6725.04,3140.42 6706.08,3148.66 6686.16,3154.24 6665.68,3157.05 6645,3157.07 6624.51,3154.25 6604.6,3148.67 6585.63,3140.43 6578.6,3136.14" style="stroke:rgb(103,198,105);stroke-width:12.094488;fill:none;stroke-opacity:0.5;stroke-linecap:round;stroke-linejoin:round;;fill:none"/>
<polyline points="6559.37,3138.27 6560.98,3139.58 6580.06,3151.18 6600.54,3160.08 6622.05,3166.11 6644.17,3169.15 6666.51,3169.15 6688.63,3166.11 6710.14,3160.08 6730.62,3151.18 6749.7,3139.58 6751.31,3138.27 6731.1,3118.05 6722.76,3123.94 6697.36,3135.22 6668.92,3141.16 6641.13,3141.13 6613.94,3135.38 6587.92,3123.94 6579.58,3118.05 6559.37,3138.27 6568.88,3137.31 6580.21,3125.98 6580.03,3124.22 6580.21,3125.98 6584.33,3128.89 6611.46,3140.97 6640.5,3147.14 6670.19,3147.14 6698,3141.3 6700.41,3140.52 6726.35,3128.89 6730.47,3125.98 6730.65,3124.22 6730.47,3125.98 6741.8,3137.31 6745.52,3137.75 6741.8,3137.31 6727.83,3145.8 6708.11,3154.37 6687.4,3160.17 6666.09,3163.1 6644.59,3163.11 6623.28,3160.19 6602.57,3154.38 6582.84,3145.81 6568.88,3137.31 6578.6,3136.14 6580.88,3133.85 6580.65,3132.58 6580.88,3133.85 6583,3134.99 6607.81,3146.04 6611.42,3147.21 6639.86,3153.16 6668.92,3153.26 6672.69,3152.86 6701.09,3146.72 6727.68,3134.99 6729.8,3133.85 6730.03,3132.58 6729.8,3133.85 6732.08,3136.14 6735.8,3136.59 6732.08,3136.14 6725.04,3140.42 6706.08,3148.66 6686.16,3154.24 6665.68,3157.05 6645,3157.07 6624.51,3154.25 6604.6,3148.67 6585.63,3140.43 6578.6,3136.14" style="stroke:rgb(0,0,0);stroke-width:1px;fill:none;stroke-opacity:1;stroke-linecap:round;stroke-linejoin:round;;fill:none"/>
<polyline points="6767.59,3081.77 6779.55,3061.22 6788.17,3034.78 6791.31,3005.9 6788.17,2977.02 6779.55,2950.59 6767.59,2930.04 6787.53,2910.1 6795.14,2920.89 6805.42,2940.71 6812.9,2961.76 6817.44,2983.62 6818.97,3005.9 6817.44,3028.18 6812.9,3050.05 6805.42,3071.09 6795.14,3090.92 6787.53,3101.7 6767.59,3081.77 6775.17,3080.79 6784.47,3064.85 6785.53,3062.49 6793.93,3036.65 6794.45,3034.18 6797.36,3005.9 6794.25,2976.38 6785.07,2948.11 6775.17,2931.02 6773.6,2930.81 6775.17,2931.02 6786.73,2919.45 6787.29,2915.49 6786.73,2919.45 6789.97,2924.04 6799.88,2943.12 6807.06,2963.39 6811.44,2984.45 6812.9,3005.9 6811.44,3027.36 6807.06,3048.41 6799.88,3068.69 6789.97,3087.77 6786.73,3092.35 6787.29,3096.31 6786.73,3092.35 6775.17,3080.79 6782.74,3079.81 6789.7,3067.89 6791.28,3064.35 6800.17,3036.69 6803.4,3005.9 6800.47,2977 6799.68,2973.29 6790.59,2945.64 6782.74,2932 6781.18,2931.79 6782.74,2932 6785.73,2929.01 6786.37,2924.86 6785.73,2929.01 6794.3,2945.54 6801.23,2965.03 6805.43,2985.27 6806.84,3005.9 6805.43,3026.53 6801.23,3046.78 6794.3,3066.26 6785.73,3082.8 6786.37,3086.94 6785.73,3082.8 6782.74,3079.81" style="stroke:rgb(103,198,105);stroke-width:12.094488;fill:none;stroke-opacity:0.5;stroke-linecap:round;stroke-linejoin:round;;fill:none"/>
<polyline points="6767.59,3081.77 6779.55,3061.22 6788.17,3034.78 6791.31,3005.9 6788.17,2977.02 6779.55,2950.59 6767.59,2930.04 6787.53,2910.1 6795.14,2920.89 6805.42,2940.71 6812.9,2961.76 6817.44,2983.62 6818.97,3005.9 6817.44,3028.18 6812.9,3050.05 6805.42,3071.09 6795.14,3090.92 6787.53,3101.7 6767.59,3081.77 6775.17,3080.79 6784.47,3064.85 6785.53,3062.49 6793.93,3036.65 6794.45,3034.18 6797.36,3005.9 6794.25,2976.38 6785.07,2948.11 6775.17,2931.02 6773.6,2930.81 6775.17,2931.02 6786.73,2919.45 6787.29,2915.49 6786.73,2919.45 6789.97,2924.04 6799.88,2943.12 6807.06,2963.39 6811.44,2984.45 6812.9,3005.9 6811.44,3027.36 6807.06,3048.41 6799.88,3068.69 6789.97,3087.77 6786.73,3092.35 6787.29,3096.31 6786.73,3092.35 6775.17,3080.79 6782.74,3079.81 6789.7,3067.89 6791.28,3064.35 6800.17,3036.69 6803.4,3005.9 6800.47,2977 6799.68,2973.29 6790.59,2945.64 6782.74,2932 6781.18,2931.79 6782.74,2932 6785.73,2929.01 6786.37,2924.86 6785.73,2929.01 6794.3,2945.54 6801.23,2965.03 6805.43,2985.27 6806.84,3005.9 6805.43,3026.53 6801.23,3046.78 6794.3,3066.26 6785.73,3082.8 6786.37,3086.94 6785.73,3082.8 6782.74,3079.81" style="stroke:rgb(0,0,0);stroke-width:1px;fill:none;stroke-opacity:1;stroke-linecap:round;stroke-linejoin:round;;fill:none"/>
</svg>
